<svg width="294" height="149" viewBox="0 0 294 149" fill="none" xmlns="http://www.w3.org/2000/svg">
<path d="M125.809 42.7773C125.809 42.9727 125.841 43.2331 125.906 43.5586C125.971 43.819 126.004 44.112 126.004 44.4375C126.004 45.8047 125.451 47.0091 124.344 48.0508C123.302 49.0924 122.13 49.6133 120.828 49.6133C119.786 49.6133 118.81 49.2878 117.898 48.6367C117.052 47.9857 116.434 47.1068 116.043 46C115.197 43.526 114.383 40.8893 113.602 38.0898C112.82 35.2253 112.104 32.4258 111.453 29.6914C110.867 26.957 110.314 24.3854 109.793 21.9766C109.272 19.5677 108.882 17.5169 108.621 15.8242C104.91 16.0195 100.678 16.1823 95.9258 16.3125C91.1732 16.3776 86.0625 16.4102 80.5938 16.4102L77.3711 137.016C82.7096 137.211 87.8529 137.602 92.8008 138.188C94.2331 138.318 95.3398 138.871 96.1211 139.848C96.9674 140.759 97.3906 141.866 97.3906 143.168C97.3906 144.796 96.8372 146.065 95.7305 146.977C94.6888 147.953 93.582 148.441 92.4102 148.441H91.8242C86.5508 147.79 81.3424 147.335 76.1992 147.074C71.056 146.879 65.9128 146.781 60.7695 146.781C55.5612 146.781 50.4505 146.879 45.4375 147.074C40.4245 147.335 35.4115 147.79 30.3984 148.441H29.8125C28.3802 148.441 27.1432 147.888 26.1016 146.781C25.125 145.674 24.6367 144.47 24.6367 143.168C24.6367 141.866 25.0599 140.759 25.9062 139.848C26.8177 138.871 27.9245 138.318 29.2266 138.188C34.2396 137.602 39.1549 137.211 43.9727 137.016L46.2188 15.8242C40.6849 15.6289 35.4766 15.401 30.5938 15.1406C25.776 14.8151 21.4466 14.4896 17.6055 14.1641C17.2148 15.9219 16.7266 18.0703 16.1406 20.6094C15.6198 23.1484 15.0013 25.8503 14.2852 28.7148C13.6341 31.5794 12.9505 34.5091 12.2344 37.5039C11.5182 40.4336 10.7695 43.2005 9.98828 45.8047C9.66276 46.9115 9.04427 47.8229 8.13281 48.5391C7.28646 49.2552 6.3099 49.6133 5.20312 49.6133C3.70573 49.6133 2.46875 49.0924 1.49219 48.0508C0.515625 46.944 0.0273438 45.7396 0.0273438 44.4375C0.0273438 44.2422 0.0273438 44.0143 0.0273438 43.7539C0.0273438 43.4284 0.0924479 43.168 0.222656 42.9727C1.19922 39.5221 2.17578 35.7461 3.15234 31.6445C4.12891 27.543 5.00781 23.7018 5.78906 20.1211C6.63542 16.5404 7.31901 13.5456 7.83984 11.1367C8.36068 8.72786 8.62109 7.49089 8.62109 7.42578C8.94661 6.1888 9.53255 5.21224 10.3789 4.49609C11.2904 3.77995 12.3646 3.42188 13.6016 3.42188H14.3828C17.7682 3.8776 21.8698 4.26823 26.6875 4.59375C31.5703 4.91927 36.8112 5.21224 42.4102 5.47266C48.0742 5.66797 53.9336 5.83073 59.9883 5.96094C66.043 6.09115 71.9674 6.15625 77.7617 6.15625C84.8581 6.15625 91.401 6.09115 97.3906 5.96094C103.38 5.76562 108.393 5.50521 112.43 5.17969H112.82C113.992 5.17969 115.066 5.60286 116.043 6.44922C117.02 7.23047 117.605 8.20703 117.801 9.37891C117.801 9.44401 117.898 9.9974 118.094 11.0391C118.289 12.0807 118.549 13.4805 118.875 15.2383C119.201 16.9961 119.591 19.0143 120.047 21.293C120.568 23.5716 121.121 25.9479 121.707 28.4219C122.293 30.8307 122.911 33.3047 123.562 35.8438C124.279 38.3177 125.027 40.6289 125.809 42.7773ZM221.902 94.6328C219.493 87.276 216.954 80.5052 214.285 74.3203C211.616 68.0703 208.979 62.4714 206.375 57.5234C203.836 52.5104 201.395 48.1484 199.051 44.4375C196.772 40.6615 194.819 37.569 193.191 35.1602C187.137 45.4466 181.701 55.5052 176.883 65.3359C172.13 75.1016 167.898 84.8672 164.188 94.6328C169.396 95.2188 174.409 95.707 179.227 96.0977C184.044 96.4232 188.829 96.5859 193.582 96.5859C198.27 96.5859 202.924 96.4232 207.547 96.0977C212.234 95.707 217.02 95.2188 221.902 94.6328ZM288.504 148.246C288.374 148.246 288.243 148.214 288.113 148.148C287.983 148.148 287.853 148.083 287.723 147.953C281.798 147.042 275.939 146.391 270.145 146C264.415 145.609 258.686 145.414 252.957 145.414C247.293 145.414 241.694 145.609 236.16 146C230.691 146.391 225.223 147.042 219.754 147.953C219.624 148.083 219.493 148.148 219.363 148.148C219.233 148.214 219.103 148.246 218.973 148.246C217.54 148.246 216.303 147.693 215.262 146.586C214.285 145.479 213.797 144.275 213.797 142.973C213.797 141.801 214.188 140.727 214.969 139.75C215.815 138.773 216.889 138.188 218.191 137.992C220.796 137.471 223.432 137.081 226.102 136.82C228.771 136.495 231.505 136.169 234.305 135.844C233.979 134.607 233.589 133.077 233.133 131.254C232.677 129.366 232.059 127.152 231.277 124.613C230.561 122.074 229.682 119.145 228.641 115.824C227.664 112.439 226.492 108.63 225.125 104.398C219.591 105.18 214.253 105.798 209.109 106.254C203.966 106.645 198.79 106.84 193.582 106.84C188.309 106.84 182.97 106.645 177.566 106.254C172.163 105.798 166.499 105.18 160.574 104.398C157.124 114.685 154.324 124.874 152.176 134.965C156.212 135.095 160.249 135.421 164.285 135.941C168.387 136.397 172.553 137.081 176.785 137.992C177.957 138.188 178.901 138.773 179.617 139.75C180.398 140.727 180.789 141.801 180.789 142.973C180.789 144.47 180.203 145.707 179.031 146.684C177.924 147.725 176.753 148.246 175.516 148.246C175.32 148.246 175.158 148.181 175.027 148.051C174.897 147.986 174.734 147.953 174.539 147.953C170.242 147.042 166.01 146.358 161.844 145.902C157.742 145.447 153.641 145.219 149.539 145.219C145.503 145.219 141.531 145.447 137.625 145.902C133.719 146.358 129.747 147.042 125.711 147.953C125.516 147.953 125.353 147.986 125.223 148.051C125.092 148.181 124.93 148.246 124.734 148.246C123.237 148.246 122 147.725 121.023 146.684C120.047 145.642 119.559 144.405 119.559 142.973C119.559 141.801 119.917 140.759 120.633 139.848C121.349 138.936 122.326 138.318 123.562 137.992C126.492 137.276 129.422 136.723 132.352 136.332C135.346 135.941 138.406 135.616 141.531 135.355C143.745 124.613 146.642 113.871 150.223 103.129C153.803 92.3867 158.068 81.5469 163.016 70.6094C168.029 59.6068 173.758 48.4414 180.203 37.1133C186.648 25.7852 193.908 14.1315 201.98 2.15234C202.566 1.37109 203.217 0.817708 203.934 0.492188C204.715 0.166667 205.464 0.00390625 206.18 0.00390625C206.961 0.00390625 207.71 0.166667 208.426 0.492188C209.142 0.752604 209.728 1.17578 210.184 1.76172C223.855 19.2096 235.574 39.0013 245.34 61.1367C255.171 83.207 263.243 108.044 269.559 135.648C276.199 136.234 282.807 137.016 289.383 137.992C290.685 138.188 291.727 138.773 292.508 139.75C293.354 140.727 293.777 141.801 293.777 142.973C293.777 144.405 293.191 145.642 292.02 146.684C290.913 147.725 289.741 148.246 288.504 148.246Z" fill="black" fill-opacity="0.3"/>
</svg>
